<?xml version="1.0" encoding="utf-8"?>
<!-- Generator: Adobe Illustrator 18.1.1, SVG Export Plug-In . SVG Version: 6.00 Build 0)  -->
<svg version="1.1" id="Layer_1" xmlns="http://www.w3.org/2000/svg" xmlns:xlink="http://www.w3.org/1999/xlink" x="0px" y="0px"
	 viewBox="0 0 42 46" enable-background="new 0 0 42 46" xml:space="preserve">
<g>
	<g>
		<path fill="#A4A3A3" d="M26.2,28.6v0.6c0,0.2,0.6,0.5,1.3,0.5c0.5,0,1-0.1,1.4-0.4c0.1-0.1,0.1-0.2,0.1-0.4v-0.3
			c0-0.4-0.6-0.6-1.3-0.6C26.7,28,26.2,28.5,26.2,28.6z M27.2,16.4c0.5,0,0.9-0.4,0.9-0.9c0-0.5-0.4-0.9-0.9-0.9
			c-0.5,0-0.9,0.4-0.9,0.9C26.4,16,26.8,16.4,27.2,16.4z M28.8,25.2c0.5,0,0.9-0.4,0.9-0.9c0-0.7-0.6-1.2-1.6-1.3
			c0.1,0.1,0.1,0.3,0.1,0.4c0,0.4-0.2,0.7-0.2,1.1C28,24.8,28.3,25.2,28.8,25.2z M25.1,11.4c0,0.3,0.2,0.5,0.5,0.5
			c0.3,0,0.5-0.2,0.5-0.5c0-0.3-0.2-0.5-0.5-0.5C25.3,10.9,25.1,11.1,25.1,11.4z M31,28.9c-0.3,0.1-0.3,0.2-0.3,0.3
			c0,0.3,0.3,0.7,0.6,0.7c0.4,0,2.8-2.1,2.8-3.7c0-1.6-1.2-2.3-2.2-2.3c-1.9,0-1.4,1.6-3.6,2.1c-0.4,0.1-0.5,0.2-0.5,0.4
			c0,0.3,0.2,0.8,0.4,0.8c1,0,2.4-2,2.7-2c0.1,0,0.2,0,0.2,0.3c0,0.7-2.1,1.6-2.1,2.2c0,0.3,0.7,0.9,1.4,0.9c1,0,2-2.1,2.2-2.1
			c0.2,0,0.2,0.1,0.2,0.3C32.9,27.3,32.2,28.4,31,28.9z M32.8,25.7c-0.1,0-0.3-0.1-0.4-0.1c-0.2-0.1-0.5-0.3-0.5-0.7
			c0-0.3,0.2-0.5,0.4-0.5c0.6,0,1.1,0.5,1.1,0.9C33.4,25.6,33.1,25.7,32.8,25.7z M35,6.1c-0.4,0-1,0.4-1.5,0.4c-0.2,0-0.4,0-0.6-0.1
			C33,6.6,33,6.9,33.1,7.2c0.1,0.3,0.4,0.3,0.6,0.3c0.5,0,1.7-0.5,1.7-1C35.3,6.3,35.2,6.1,35,6.1z M33.6,7.9
			c-0.4,0-0.6,0.3-0.6,0.4c0,0.4,0.3,0.5,0.8,0.5c1.3,0,2.5-1.1,2.5-2c0-0.4-0.2-0.8-0.7-0.8c0.1,0.1,0.1,0.2,0.1,0.4
			C35.9,7.2,34.8,7.9,33.6,7.9z M25.6,30.3c-0.3,0.4-0.7,1-0.7,1.7c0,0.5,0.4,1,1.1,1c2.4,0,4.2-1.5,4.2-2.7c0-0.7-0.4-1-0.7-1
			c-0.3,0.3-1.1,0.8-2.4,0.8c-0.7,0-1-0.2-1.1-0.2C25.8,30,25.7,30.2,25.6,30.3z M27,30.9h0.2c1,0,1.4-0.4,1.5-0.4
			c0.1,0,0.1,0,0.1,0.3c0,0.3-0.1,0.6-0.6,0.9c-0.3,0.2-0.8,0.4-1.4,0.4c0.1-0.3,0.2-0.6,0.2-0.9C27,31.1,27,31,27,30.9z M36.5,8
			c-0.6,1.2-2.1,1.4-2.6,1.4c0.2,1.2,2,2.8,2.5,2.8c0.3,0,0.5-1.6,0.5-2.8C36.8,8.7,36.8,8.2,36.5,8z M26.8,13.7
			c0,0.3,0.2,0.5,0.5,0.5c0.3,0,0.5-0.2,0.5-0.5c0-0.3-0.2-0.5-0.5-0.5C27.1,13.2,26.8,13.4,26.8,13.7z M36.4,17.6
			c-0.6,0-0.9,1-1.5,1.1c0.4-1.5,1.9-2.3,1.9-3.7c0-1.6-1.4-2.2-1.9-2.5c-0.9-1.3-1.6-2.4-3.2-2.4c-0.7,0-1.1,0.1-1.5,0.1
			c-0.9,0-1.1-0.3-1.2-0.3c0,0,0,0,0,0.1c0,1.2,0.6,3.9,3.4,3.9c1.5,0,2.1-0.6,2.4-0.6c0.4,0,1.6,0.4,1.6,1.7c0,0.7-0.6,1.5-0.8,1.5
			c-0.2,0-0.4-0.3-0.4-0.7c0-0.4,0.2-1.1,0.2-1.6c0-0.2,0-0.3-0.1-0.3c-0.2,0-1.3,0.7-1.3,1.6c0,0.7,1.1,1.2,1.5,1.4
			c-0.4,0.7-0.7,1.1-0.9,1.8c0-0.5-0.5-1.5-0.6-1.8c-0.7-1.9-0.9-2.3-2.4-2.4c0.2,0.8,2.7,2.6,2.7,4.5c0,0.1,0,0.3,0,0.3
			c-0.8-2.2-2.1-2.7-2.5-3.2c-0.8-0.8-0.3-1.6-1.5-2.1c0.1,0.1,0.1,0.2,0.1,0.4c0,0.4-0.2,0.9-0.2,1.3c0,1.3,1.6,0.9,2.5,1.6
			c0.9,0.7,1.4,1.9,1.8,3.2c0.4-0.6,0.6-1.3,1.2-1.3c0.4,0,0.6,0.5,0.6,0.9c0,0.1,0,0.1,0,0.2c0.6-0.5,0.9-1.4,0.9-1.9
			C36.9,17.8,36.7,17.6,36.4,17.6z M34,12.6c-0.1,0-0.4-0.1-0.5-0.1c-0.4,0-0.7,0.6-1,0.6c-0.1,0-0.1-0.1-0.1-0.1
			c0-0.2,0.4-0.5,0.4-0.7c0-0.1-0.2-0.2-0.3-0.2c-0.4,0-1,0.6-1.4,0.6c-0.1,0-0.1,0-0.1-0.1c0-0.2,0.5-0.4,0.5-0.6
			c0-0.2-0.2-0.2-0.3-0.2c-0.2,0-0.6,0.1-0.9,0.1c-0.2,0-0.3,0-0.3-0.2c0-0.3,0.8-0.1,0.8-0.4c0-0.1-0.3-0.4-0.3-0.6
			c0-0.1,0.1-0.1,0.1-0.1c0.3,0,0.6,0.8,0.9,0.8c0.2,0,0.2-0.1,0.2-0.3c0-0.2,0-0.3,0-0.4c0-0.2,0.1-0.2,0.1-0.2
			c0.2,0,0.4,1.1,1,1.1c0.3,0,0.1-0.7,0.3-0.7c0.1,0,0.2,0.2,0.2,0.3c0.1,0.7,0.7,0.8,0.7,1C34.2,12.5,34.1,12.6,34,12.6z M34.9,25
			c0.9-0.8,1.4-1.9,1.4-2.9c0-1-0.5-1.8-1.2-1.8c-0.6,0-0.9,0.4-0.9,0.9c0,0.3,0.1,0.6,0.3,0.8c-0.2-0.2-0.5-0.3-1-0.3
			c-0.5,0-0.8,0.4-0.8,0.9C32.7,23.9,34.9,23.3,34.9,25z M5.7,22.1c0.3,0.6,0.6,0.7,1.5,0.8c-0.5-0.4-0.6-0.8-0.6-1.1
			c0-0.7,0.7-1.9,1.1-2.7c0.6-1.1,1.2-2.7,1.2-3.4c0-0.3-0.1-0.4-0.2-0.4c-0.1,0-0.3,0.2-0.4,0.5c-0.2,0.7-0.8,2.1-1.2,2.1
			c-0.1,0-0.1-0.1-0.1-0.1c0-0.5,0.8-2.2,0.8-2.8c0-0.2-0.1-0.3-0.2-0.3c-0.5,0-1.1,2.9-1.4,2.9c-0.1,0-0.2-0.1-0.2-0.3
			c0-0.5,0.3-1.4,0.3-1.9c0-0.2-0.1-0.4-0.2-0.4c-0.7,0-0.6,2.6-1,2.6c-0.1,0-0.3-0.1-0.3-0.6c0-0.6,0.1-0.9,0.1-1.1
			c0-0.1,0-0.2-0.2-0.2c-0.4,0-0.7,1.4-0.7,2.8c0,1.6,0.3,2.5,0.7,2.5c0.4,0,1-0.9,1-1.3c0-0.2-0.1-0.3-0.2-0.4
			c-0.3-0.5,0-1.1,0.2-1.1c0.3,0,0.3,0.3,0.8,0.6c0.2,0.1,0.2,0.3,0.2,0.5c0,0.9-1.9,2.2-1.9,4.3c0,2.5,1.9,2.9,2.2,3.4
			C8.2,24.5,4.4,24.8,5.7,22.1z M27.2,8.7c0-0.2-0.1-0.6-0.2-0.8c0,1.1-0.8,1.6-1.6,1.6c-0.2,0-0.3,0-0.5-0.1
			c0.2-0.1,0.3-0.4,0.3-0.5c0-0.1-0.1-0.1-0.2-0.1c-0.1,0-0.3,0-0.4,0c-0.4,0-0.7-0.1-1-0.5c-0.2,0.3-0.3,0.7-0.3,1.2
			c0,0.7,0.3,1.3,0.6,1.4c0.2,0,0.2-0.5,0.4-0.5c0.1,0,0.4,0.2,1,0.2C26.2,10.6,27.2,10.1,27.2,8.7z M25.2,14.7
			c0,0.3,0.2,0.5,0.5,0.5c0.3,0,0.5-0.2,0.5-0.5c0-0.3-0.2-0.5-0.5-0.5C25.4,14.2,25.2,14.4,25.2,14.7z M24.2,13.1
			c-0.4,0-0.7,0.3-0.7,0.7c0,0.4,0.3,0.7,0.7,0.7c0.4,0,0.7-0.3,0.7-0.7C24.9,13.5,24.6,13.1,24.2,13.1z M24.4,11.6
			c-0.3,0-0.5,0.2-0.5,0.5c0,0.3,0.2,0.5,0.5,0.5c0.3,0,0.5-0.2,0.5-0.5C24.9,11.8,24.7,11.6,24.4,11.6z M26.5,25
			c0.7,0,1.1-0.6,1.1-1.2c0-0.9-0.7-1.9-2.1-2.2c0.2,0.2,0.2,0.4,0.2,0.6c0,0.5-0.4,1.1-0.4,1.6C25.4,24.6,25.9,25,26.5,25z
			 M26.3,22.9c0-0.2,0-0.3,0.1-0.3c0.2,0,0.5,0.4,0.5,0.6c0,0.2-0.1,0.4-0.3,0.4c-0.2,0-0.3-0.1-0.3-0.3
			C26.2,23.2,26.3,23,26.3,22.9z M26.6,13.1c0-0.4-0.3-0.8-0.8-0.8c-0.4,0-0.8,0.3-0.8,0.8c0,0.4,0.3,0.8,0.8,0.8
			C26.3,13.8,26.6,13.5,26.6,13.1z M28,21c-0.3,0.1-0.6,0.1-0.6,0.2c0,0.2,0.8,0.2,0.8,0.4c0,0.1-0.4,0.6-0.4,0.7c0,0,0,0,0.1,0
			c0.1,0,0.6-0.3,0.7-0.3c0.3,0,0.2,0.7,0.4,0.7c0.2,0,0.1-1.1,0.2-1.4c0.2-0.5,0.5-1,0.8-1c0.4,0,0.4,0.7,0.4,1
			c0,0.6-0.5,1.3-0.5,1.6c0,0,0,0.1,0.1,0.1c0.1,0,0.5-0.4,0.6-0.4c0.2,0,0.6,0.7,0.7,0.7c0.1,0,0.1-0.1,0.1-0.1
			c0-0.2-0.1-0.5-0.1-0.8c0-0.3,0.8-0.1,0.8-0.3c0-0.1-0.4-0.2-0.6-0.4c-0.5-0.3-1-0.9-1-1.4c0-0.2,0.1-0.3,0.2-0.3
			c1,0,1.4,1.5,1.6,1.5c0.2,0,0.1-0.7,0.2-0.8c0-0.1,0.1-0.1,0.2-0.1c0.2,0,0.4,0,0.5,0c0.1,0,0.1,0,0.2-0.1c0-0.1-0.8-0.4-0.8-0.6
			c0-0.2,0.4-0.6,0.4-0.7c0,0,0-0.1-0.1-0.1c-0.2,0-0.8,0.5-1.6,0.5c-0.4,0-0.6-0.1-0.6-0.3c0-0.3,0.2-0.4,0.6-0.6
			c0.4-0.2,1.2-0.2,1.2-0.4c0-0.1-0.7-0.2-0.7-0.3c0-0.2,0.3-0.6,0.3-0.8c0,0,0-0.1-0.1-0.1c-0.1,0-0.5,0.4-0.7,0.4
			c-0.2,0-0.4-0.5-0.6-0.5c-0.1,0-0.1,0-0.1,0.1c0,0.2,0.1,0.6,0.1,1.1c0,0.4-0.2,0.8-0.5,0.8c-0.3,0-0.4-0.4-0.4-0.7
			c0-0.5,0.2-1,0.2-1.5c0-0.1,0-0.2-0.1-0.2c-0.2,0-0.5,0.5-0.7,0.5c-0.1,0-0.4-0.6-0.6-0.6c-0.1,0-0.1,0.1-0.1,0.2
			c0,0.2,0,0.4,0,0.5c0,0.2-0.2,0.2-0.4,0.2c-0.1,0-0.4,0-0.4,0.1c0,0.1,0.3,0.2,0.5,0.4c0.5,0.3,1.2,0.6,1.2,1.4
			C29.6,20.5,28.7,20.9,28,21z M28.9,15.5c-0.3,0-0.5,0.2-0.5,0.5c0,0.3,0.2,0.5,0.5,0.5c0.3,0,0.5-0.2,0.5-0.5
			C29.4,15.7,29.1,15.5,28.9,15.5z M27.4,10.2c0,0.3,0.2,0.5,0.5,0.5c0.3,0,0.5-0.2,0.5-0.5c0-0.3-0.2-0.5-0.5-0.5
			C27.7,9.7,27.4,9.9,27.4,10.2z M28.7,12.3c-0.3,0-0.5,0.2-0.5,0.5c0,0.3,0.2,0.5,0.5,0.5c0.3,0,0.5-0.2,0.5-0.5
			C29.2,12.5,29,12.3,28.7,12.3z M25.3,7.8c0,0.1,0,0.2,0.1,0.2c0.3,0.2,0.5,0.4,0.6,0.6c0.6-0.3,0.8-1.2,0.8-1.7
			c0-0.2,0-0.4-0.1-0.4c-0.1,0-0.2,0.1-0.4,0.1c-0.1,0-0.4-0.4-1.3-0.4c-0.9,0-1.3,0.7-1.3,1.2c0,0.2,0,0.3,0.1,0.4
			c0.1-0.4,0.5-0.7,1-0.7c0.2,0,0.6,0.1,0.7,0.3C25.4,7.5,25.3,7.7,25.3,7.8z M30.3,9.4c1.2,0,2.1-0.4,2.1-1c0-0.6-0.6-1.7-0.9-1.7
			c-0.2,0-0.7,0.3-1,0.3c-0.4,0-0.3-0.5-0.7-0.5c-0.1,0-0.2,0-0.3,0.1c-0.9,0.5-1.6,0.3-1.8,0.4c0,0-0.1,0.1-0.1,0.1
			C27.6,7.9,28.6,9.4,30.3,9.4z M29,7.5c0.2,0,0.6,0.2,1.1,0.3c0.6,0.1,1,0.1,1.1,0.1c0.2,0,0.2,0,0.2,0.1c0,0.2-0.4,0.4-1,0.4
			C29.5,8.4,28.9,7.9,29,7.5C28.9,7.6,28.9,7.5,29,7.5z M28.8,13.8c-0.3,0-0.6,0.3-0.6,0.6c0,0.3,0.3,0.6,0.6,0.6
			c0.3,0,0.6-0.3,0.6-0.6C29.4,14.1,29.1,13.8,28.8,13.8z M26.5,11.7c0,0.4,0.4,0.8,0.8,0.8c0.4,0,0.8-0.4,0.8-0.8
			c0-0.4-0.4-0.8-0.8-0.8C26.8,10.9,26.5,11.3,26.5,11.7z M23.9,28.7c2.3,0,3.4-1.8,3.4-3.2c-0.4,0.4-1.6,0.5-2.1,0.5
			c-1.8,0-2.2-0.9-2.5-0.9c-0.2,0-0.2,0.4-0.2,0.5c0,0.1,0,0.2-0.1,0.2c-0.1,0-0.2-0.1-0.3-0.1c-0.1,0-0.1,0.1-0.1,0.2
			c0,0.5,0.7,0.9,1.4,0.9c0.9,0,1.3-0.4,1.5-0.4c0.1,0,0.2,0.1,0.2,0.2c0,0.1-0.2,0.3-0.2,0.4c0,0.2,0.4,0,0.4,0.3
			c0,0.3-0.5,0.6-1.3,0.6c-1.6,0-2.6-1.1-2.6-2.1c0-1.9,2.1-1.3,2.1-2c0-0.3-0.2-0.4-0.4-0.4c0.2-0.3,0.5-0.3,0.8-0.3
			c0.2,0,0.4,0,0.6,0c0.2,0,0.5-0.1,0.5-0.4c0-0.2-0.1-0.4-0.7-0.4c0.1-0.4,0.9-0.2,0.9-0.5c0-0.2-0.5-0.4-1-0.4
			c-2.2,0-3.8,1.8-3.8,3.7C20.3,26.8,21.5,28.7,23.9,28.7z M8.9,13.7c0.6,0,0.9-0.5,0.9-1.1c0-0.8-0.8-1.4-1.4-1.6
			c-0.3,0.3-0.6,0.9-0.6,1.5C7.8,13.2,8.2,13.7,8.9,13.7z M15.7,1.6c0,0.2,0.8,0.7,1.2,0.7c0.2,0,0.3-0.3,0.3-0.6
			c0-0.4-0.2-0.4-0.5-0.4C16.2,1.3,15.7,1.4,15.7,1.6z M4.2,12.3c0,0.1,0,0.1,0,0.2c0,0.6,0.3,0.9,0.7,0.9c0.3,0,0.7-0.2,1-0.6
			c-0.1,0-0.3,0-0.5,0C5,12.8,4.5,12.7,4.2,12.3z M8.4,9.8c0,0.3,0.2,0.5,0.5,0.5c0.3,0,0.5-0.2,0.5-0.5c0-0.3-0.2-0.5-0.5-0.5
			C8.6,9.3,8.4,9.5,8.4,9.8z M7.1,7.6C7.1,7,6.9,6.1,6,6.1c-0.5,0-0.9,0.4-0.9,0.9c0,1,1,1.4,1.9,1.4C7.1,8.1,7.1,7.9,7.1,7.6z
			 M18.3,23.3c0,0.3-0.6,0.7-1.4,0.7c-0.9,0-1.5-0.2-2.1-0.7c-0.2-0.2-0.2-0.3-0.4-0.3c-0.2,0-0.3,0.4-0.3,0.7
			c0,1.2,1.2,2.7,2.9,2.7c2.1,0,2.9-1.4,2.9-2.6c0-0.7-0.2-1.3-1.3-1.7c-0.6-0.2-0.8-0.6-1-1.2c-0.3,0.4-0.4,0.8-0.4,1
			C17.1,22.7,18.3,22.7,18.3,23.3z M18.8,23.8c0.1,0,0.2,0.1,0.2,0.3c0,0.7-0.7,1.4-1.2,1.4c-0.2,0-0.2-0.1-0.2-0.2
			c0-0.1,0-0.3,0-0.5c0-0.4,0.2-0.4,0.6-0.6C18.6,24,18.7,23.8,18.8,23.8z M8.3,8.1C8,8.1,7.8,8.3,7.8,8.6c0,0.3,0.2,0.5,0.5,0.5
			c0.3,0,0.5-0.2,0.5-0.5C8.8,8.3,8.5,8.1,8.3,8.1z M16.2,18.2c0-0.5,0.9-0.9,0.9-1.8c0-0.5-0.5-1.1-1.2-1.5
			c0.1,0.2,0.2,0.5,0.2,0.7c0,1-1.9,1.4-1.9,2.2c0,1,1.9,1.4,1.9,1.9c0,0.2-0.1,0.3-0.3,0.3c-0.2,0-0.6-0.2-0.9-0.5
			c-0.4,0.4-0.7,0.9-0.7,1.6c0,1.3,1.3,2.3,2.6,2.3c0.2,0,0.4,0,0.7-0.1c-0.7-0.1-1.2-0.6-1.2-1.3c0-0.8,0.9-1.6,0.9-2.2
			C17.2,18.9,16.2,18.8,16.2,18.2z M11.8,23.6c-0.4,0-0.9,0.2-0.9,0.6c0,0.2,0.1,0.4,0.9,0.6c1,0.3,1.5,0.8,1.6,1.4
			c0.1,0.6,0.2,1.1,0.5,1.4c0.3,0.4,0.9,0.7,1.5,0.7c0.5,0,0.8-0.2,0.8-0.6c0-0.5-0.6-1.5-1.5-1.5c-0.1,0-0.2,0-0.3,0
			c-0.1,0-0.3,0-0.4-0.1c-0.2-0.2-0.3-1.1-0.7-1.7C12.9,23.8,12.5,23.6,11.8,23.6z M14.8,26.7c0.3,0,0.9,0.4,0.9,0.7
			c0,0.1-0.1,0.2-0.3,0.2c-0.4,0-1-0.4-1-0.6C14.4,26.8,14.6,26.7,14.8,26.7z M19.4,26.7c0-0.2-0.2-0.4-0.4-0.4
			c-0.2,0-0.3,0.1-0.3,0.4c0,0.2,0.1,0.4,0.1,0.6c0,0.1,0,0.2-0.1,0.4c-0.1-0.3-0.5-0.4-0.7-0.4c-1.3,0-0.8,1.9-2.2,1.9
			c-0.6,0-0.6-0.1-0.9-0.1c-0.1,0-0.1,0-0.1,0.1c0,0.3,0.5,1.1,1.8,1.1c1.3,0,2.6-0.8,2.6-1.8c0-0.2,0-0.3-0.1-0.5
			c0.1-0.1,0.2-0.1,0.3-0.1c0.2,0,0.3,0.2,0.5,0.2c0.2,0,0.4-0.2,0.4-0.4c0-0.2-0.1-0.3-0.2-0.4c0.1-0.1,0.2-0.2,0.2-0.3
			c0-0.2-0.2-0.4-0.4-0.4C19.6,26.5,19.5,26.6,19.4,26.7z M11,9.7c-0.6,0-0.3-1-0.7-1c-0.3,0-0.3,0.6-0.3,0.8c0,0.7,0.5,1.5,1.5,1.5
			c1.1,0,1.8-0.5,2.4-1.2c0.1,0.8,0.5,2.1,1.7,2.1c0.6,0,1-0.5,1.1-1.1c-0.1,0.1-0.2,0.1-0.3,0.1c-0.2,0-0.3-0.3-0.3-0.6
			c0-0.5,0.1-1,0.4-1c0.1,0,0.2,0.1,0.2,0.4c0,0.3,0,0.6,0.2,0.6c0.2,0,0.3-0.5,0.3-0.9c0-0.8-0.4-1.5-1.2-1.5
			c-0.7,0-1.3,0.5-1.7,1.3c0-0.1,0-0.3,0-0.4c0-1-0.5-1.9-1.5-1.9c-0.8,0-1.6,0.5-1.9,1.4c0.1-0.1,0.4-0.3,0.6-0.3
			c0.3,0,0.3,0.2,0.3,0.6c0,0.2-0.1,0.5-0.1,0.7C11.5,9.6,11.2,9.7,11,9.7z M15.8,8.6c0.1,0,0.1,0.2,0.1,0.3c0,0.8-0.4,2-0.7,2
			c-0.1,0-0.1-0.1-0.1-0.4C15.1,9.9,15.6,8.6,15.8,8.6z M14.8,9.1c0.1,0,0.1,0.1,0.1,0.3c0,0.4-0.2,0.9-0.3,0.9
			c-0.1,0-0.2-0.2-0.2-0.7C14.6,9.2,14.7,9.1,14.8,9.1z M13.6,8.3c0.2,0,0.3,0.3,0.3,0.5c0,0.2,0,0.3,0,0.5
			c-0.3,0.4-0.5,0.5-0.7,0.5c-0.1,0-0.2-0.1-0.2-0.3C13,9.3,13.2,8.3,13.6,8.3z M12.9,7.4c0.1,0,0.1,0.1,0.1,0.2
			c0,0.4-0.5,2.7-0.9,2.7c-0.1,0-0.1-0.1-0.1-0.2C12,9.6,12.5,7.4,12.9,7.4z M8.2,20.3c-0.3,0-0.4-0.3-0.5-0.3
			c-0.1,0-0.1,0.2-0.1,0.3c0,0.5,0.3,0.7,0.7,0.7c0.5,0,1-0.4,1-1.3v-1.3c0-0.5,0-1.1,0.4-1.4c0,0.2,0,0.3,0,0.5
			c0,1.1,0.6,1.8,0.6,2.9c0,0.4-0.1,0.6-0.4,0.6c-0.3,0-0.3-0.3-0.3-0.3c-0.1,0-0.1,0.2-0.1,0.3c0,0.3,0.2,0.7,0.7,0.7
			c0.5,0,0.8-0.4,0.8-0.9c0-1.1-0.9-2.4-0.9-3.6c0-0.5,0.1-0.9,0.3-1.2c0,2.5,2.2,4.4,2.2,5.4c0,0.2-0.2,0.4-0.4,0.4
			c-0.3,0-0.4-0.2-0.4-0.4c0-0.1,0-0.1-0.1-0.1c-0.1,0-0.3,0.3-0.3,0.6c0,0.4,0.3,0.9,1,0.9c0.7,0,1.1-0.6,1.1-1.2
			c0-1.3-2.6-3.3-2.6-5.5c0-0.4,0.1-1,0.3-1.4c-1.7,1.1-2.2,2.5-2.2,3.8C8.8,19.8,8.8,20.3,8.2,20.3z M17.1,6.4c0-0.1,0-0.2-0.1-0.3
			c-0.2-0.3-1.9-1.6-2.2-1.6c0,0-0.1,0-0.1,0.1c0,0.4,1.6,2.6,1.9,2.6C16.9,7.3,17.1,6.8,17.1,6.4z M9.6,15.4c0.4-1,1.6-1.4,2.4-1.4
			c0.2,0,0.3,0,0.4,0c-0.4,0.4-0.5,1-0.5,1.4c0,0.2-0.1,0.2-0.2,0.2c0,0.4,0.3,1,0.3,1.4c0,0.1-0.1,0.2-0.1,0.2c0,0.6,0.6,1,0.6,1.3
			c0,0.1,0,0.2-0.1,0.2c0,0.2,0.7,0.6,0.7,0.8c0.1,0.3,0.2,0.3,0.3,0.3c0.2,0,0.6-0.3,0.6-0.5c0-0.1-0.1-0.2-0.1-0.2
			c-0.2-0.2-0.4-0.6-0.5-0.8c-0.1,0-0.2-0.1-0.2-0.2c-0.1-0.2-0.1-0.8-0.2-1.1c-0.2,0-0.2-0.1-0.2-0.4c0-0.2,0.1-0.8,0.1-1
			c-0.1,0-0.2-0.1-0.2-0.2c0-0.4,0.4-0.7,0.5-1.2c0.7,0.5,0.9,1.1,0.9,1.6c0,0.3,0,0.5-0.1,0.7c0.5-0.3,1.3-0.7,1.3-1.5
			c0-0.5-0.2-1-1.7-1.2c0.4-0.2,1-0.3,1.5-0.3c0.8,0,1.3,0.3,1.4,0.8c0.2-0.3,0.3-0.5,0.3-0.8c0-0.6-0.5-1-1.2-1
			c-0.8,0-1.5,0.4-2.2,0.9c0.3-0.7,0.6-1.1,1-1.1c0.1,0,0.1,0,0.2,0c-0.2-0.6-0.7-1.1-1-1.1c-0.5,0-0.6,0.7-0.6,2
			c-0.4-0.9-1.1-1.8-1.9-1.8c-0.5,0-0.7,0.4-0.7,1c0,0.1,0,0.3,0,0.4c0.1-0.2,0.3-0.3,0.5-0.3c0.6,0,1.2,0.4,1.6,1
			c-0.5-0.1-1-0.2-1.4-0.2c-0.3,0-0.5,0-0.7,0.1c-0.4,0.2-0.9,0.7-0.9,1.5C9.6,15.1,9.6,15.2,9.6,15.4z M5,3.2
			c-0.3,0-0.7,0.1-0.8,0.2C4,3.5,3.9,3.9,3.9,4.2c0,0.1,0,0.3,0.2,0.3c0.3,0,1.3-0.8,1.3-1.1C5.4,3.2,5.2,3.2,5,3.2z M17.4,30.7
			c-0.1,0.7-0.7,0.9-1.1,0.9c-0.3,0-0.9-0.1-0.9-0.2c-0.2-1.1-1-1.7-1.4-1.8c0,0.1,0,0.2,0,0.4c0,0.9-0.6,1.5-1.8,1.5
			c-0.2,0-0.4,0-0.6-0.1c1.3,1.5,2.3,0.9,2.9,1.2c0.8,0.4,1.5,1.5,4.1,1.5c1,0,1.9-0.4,2.6-0.8c0.1,0.4,0.5,0.7,1.2,0.7
			c1.1,0,1.7-0.3,1.7-0.6c0-0.1,0-0.2-0.2-0.2c-0.2,0-0.2,0.1-0.8,0.1h0c-0.7,0-1.9-0.3-2.4-1.5c-0.1-0.2-0.2-0.2-0.3-0.2
			c-0.4,0-0.9,1.3-3.2,1.3c-0.9,0-1.4-0.3-1.4-0.4c0,0,0,0,0.1,0c0.1,0,0.4,0,0.9,0c1.4,0,2.6-0.6,3.3-1.4c0.2-0.3,0.4-0.3,0.6-0.3
			c0.2,0,0.4,0.2,0.5,0.4c0.3,0.8,1,1.5,1.8,1.5c1.1,0,1.1-1.8,1.3-1.9c0,0,0.1,0,0.2,0c0.1,0,0.3-0.1,0.3-0.3
			c0-0.3-0.3-0.3-0.4-0.5c-0.1-0.2,0-0.7-0.4-0.7c-0.3,0-0.3,0.2-0.3,0.4c-0.6-0.2-1-0.2-1.4-0.2c-0.3,0-0.5,0-0.8,0.1
			c-0.2-0.3-0.8-0.7-1.3-0.9C20,29.7,19,30.6,17.4,30.7z M22.7,30.2c0.3,0,0.5,0.2,0.5,0.5c0,0.3-0.2,0.5-0.5,0.5
			c-0.3,0-0.5-0.2-0.5-0.5C22.2,30.5,22.4,30.2,22.7,30.2z M24.5,25.3c0.4,0,0.6-0.3,0.6-0.6c0-0.5-0.5-0.9-1.2-0.9
			C24,23.9,24,24,24,24.1c0,0.2-0.1,0.4-0.1,0.6C24,25.1,24.2,25.3,24.5,25.3z M4.8,8.9c0.5,0,0.8-0.3,0.8-0.3
			C4.9,8.4,4.5,7.8,4.5,7.1c0-0.1,0-0.1,0-0.2C4,7.1,3.8,7.5,3.8,7.9C3.8,8.5,4.2,8.9,4.8,8.9z M25.3,19.4c0.2,0,0.2,0.1,0.2,0.2
			c0,0.2-0.4,0.6-0.4,0.9c0,0.4,0.5,0.7,0.9,0.7c0.4,0,0.6-0.2,0.6-0.4c0-0.3-0.6-0.7-0.6-1.1c0-0.2,0.2-0.2,0.4-0.2
			c0.5,0,0.7,0.1,0.7,0.2c0,0.2-0.2,0.4-0.2,0.5c0,0.1,0,0.1,0.2,0.1c0.4,0,1.9-0.3,1.9-0.6c0-0.3-1.4-1.4-1.7-1.4
			c-0.1,0-0.1,0.1-0.1,0.1c0,0.1,0,0.2,0,0.4c0,0.2-0.1,0.3-0.4,0.3c-0.3,0-0.7-0.1-0.7-0.5c0-0.9,1.7-0.7,1.9-1.5
			c-0.7,0-1.1-0.5-1.6-0.5c-0.2,0-0.5,0.1-0.5,0.5c0,0.1,0.1,0.4,0.1,0.6s-0.1,0.4-0.3,0.4c-0.2,0-0.2-0.2-0.2-0.5
			c0-0.2,0.1-0.5,0.1-0.7c0-1.3-1.5-0.8-1.6-1.8c-0.3,0.6-0.5,1.1-0.5,1.5c0,1.4,1.9,1.2,1.9,2.2c0,0.2-0.2,0.4-0.3,0.4
			c-0.3,0-0.5-0.7-1-0.7c-0.3,0-0.4,0.2-0.4,0.6c0,0.3,0.1,0.5,0.1,0.8c0,0.5-0.2,0.8-0.5,1.1C24.7,20.7,24.8,19.4,25.3,19.4z
			 M4.5,14.8c0.4,0,1-0.3,1.6-0.8c-0.5,0.1-0.9,0.2-1.2,0.2c-0.5,0-0.8-0.2-1.2-0.8C3.7,14.4,4,14.8,4.5,14.8z M7.7,9.6
			C7.5,9.3,7.6,9.2,7.5,9.1C7.4,9,7.2,9,7,9C6.9,9,6.8,9,6.7,9c-0.4,0-1,0.1-1.5,0.4c-1.1,0.7-0.9,1.9-1.1,2.2c0,0,0,0.1,0,0.1
			c0,0.1,0.1,0.2,0.2,0.2c0.1,0,0.2,0,0.2,0c0.3,0,0.7,0.2,1.2,0.2c0.3,0,0.6-0.1,1.1-0.3C7.7,11.4,8,10.2,8,10
			C8,9.8,7.8,9.8,7.7,9.6z M5.9,11.5c-0.4,0-0.9-0.5-0.9-1c0-0.3,0.2-0.6,0.3-0.6c0.1,0,0.1,0,0.1,0.1c0.1,0.6,0.5,1,0.9,1.2
			c0,0,0.1,0,0.1,0.1C6.4,11.4,6.2,11.5,5.9,11.5z M7.1,10.7c-0.4,0-0.8-0.7-0.8-1.1c0-0.2,0.1-0.3,0.3-0.3c0.1,0,0.1,0,0.2,0.1
			C7,9.5,7,9.8,7.1,10c0.1,0.1,0.3,0.3,0.3,0.4C7.4,10.5,7.3,10.7,7.1,10.7z M23.2,3.9c0,0.2,0.9,0.1,0.9,0.3c0,0.3-0.6,1.2-0.6,1.4
			c0,0.1,0,0.1,0.1,0.1c0.2,0,1-0.8,1.2-0.8c0.2,0,0.2,0.5,0.3,0.8c0,0.2,0.1,0.2,0.1,0.2c0.2,0,0.4-0.6,0.6-0.6
			c0.2,0,0.9,0.7,2,0.7c1.5,0,3-1.1,3-3c0-1.8-1.3-2.9-3.1-2.9c-0.9,0-1.5,0.4-1.8,0.4C25.5,0.5,25.1,0,25,0c-0.1,0-0.1,0.1-0.1,0.3
			c0,0.1,0,0.6-0.2,0.6c-0.3,0-1.5-0.9-1.5-0.6c0,0.3,0.8,1.2,0.8,1.4c0,0.2-0.8,0.4-0.8,0.6c0,0.3,0.8,0.3,0.8,0.7
			C24.1,3.4,23.2,3.7,23.2,3.9z M27.5,0.7c1.3,0,2,0.9,2,2.3c0,1.8-1.3,2.3-2,2.3c-0.9,0-1.5-0.4-1.5-0.7c0-0.1,0.1-0.2,0.2-0.2
			c0.3,0,0.9,0.4,1.1,0.4c0.1,0,0.1,0,0.1-0.1c0-0.2-0.2-0.6-0.2-0.8c0-0.1,0-0.1,0.1-0.1c0.3,0,0.9,0.1,1.1,0.1
			c0.1,0,0.1-0.1,0.1-0.1c0-0.3-0.8-0.8-0.8-1c0-0.2,1-0.4,1-0.6c0-0.3-1.4-0.1-1.4-0.3c0-0.2,0.3-0.5,0.3-0.6
			c0-0.1-0.1-0.1-0.1-0.1c-0.1,0-0.7,0.2-1,0.2c-0.1,0-0.3,0-0.3-0.2C26.2,1,26.7,0.7,27.5,0.7z M24.5,2.3
			C24.5,2.3,24.5,2.3,24.5,2.3c0.2,0,0.4,0,0.6,0c0.2,0,0.2-0.7,0.3-0.7c0.1,0,0.2,0.7,0.4,0.7c0.2,0,0.5-0.2,0.6-0.2
			c0,0,0.1,0,0.1,0c0,0.1-0.3,0.4-0.3,0.5c0,0.1,0.7,0.3,0.7,0.4c0,0.1-0.7,0.1-0.7,0.2c0,0.1,0.3,0.4,0.3,0.6c0,0,0,0,0,0
			c-0.1,0-0.5-0.2-0.6-0.2c-0.1,0-0.4,0.5-0.5,0.5c0,0-0.1-0.1-0.1-0.1l0-0.5c0-0.1,0-0.1-0.1-0.1c-0.2,0-0.4,0-0.5,0
			c-0.1,0-0.1,0-0.1,0c0-0.1,0.5-0.5,0.5-0.5C25,2.7,24.5,2.4,24.5,2.3z M6.4,13.2c0,0.5,0.4,0.7,0.8,0.7c0.2,0,0.4-0.1,0.5-0.1
			c-0.4-0.3-0.5-0.7-0.5-1.1c0-0.3,0-0.4,0.1-0.6C7,12.2,6.4,12.5,6.4,13.2z M3.8,2.5c0,0.4,2.5,0,2.5,0.4c0,0.4-2.2,2.3-2.2,2.9
			C4.1,6,4.2,6,4.4,6C5,6,6.8,4.8,7.2,4.8c0.2,0,0.2,0.2,0.2,0.4c0,0.3-0.1,0.8-0.1,1.2c0,0.3,0.1,0.5,0.3,0.5
			c0.5,0,0.9-0.8,1.2-0.8c0.4,0,0.2,2.3,0.8,2.3c0.5,0,0.7-2.5,1.1-2.5c0.3,0,0.6,0.7,0.9,0.7c0.4,0,0.2-1.3,0.6-1.3
			c0.4,0,1.7,1.5,2.3,1.5c0.2,0,0.2-0.1,0.2-0.3c0-0.7-0.9-2.2-0.9-2.7c0-0.1,0-0.2,0.2-0.2c0.5,0,2,0.7,2.6,0.7
			c0.2,0,0.4-0.1,0.4-0.3c0-0.8-2.1-2.2-2.1-2.7c0,0,0,0,0-0.1c0.2-0.4,1.9-0.7,1.9-1.1c0-0.2-0.3-0.2-0.5-0.2
			c-1.2,0-2.9,0.4-2.9,0.8c0,0.4,1.6,1.5,1.6,2c0,0.1-0.1,0.2-0.2,0.2c-0.4,0-1.4-0.5-1.8-0.5c-0.2,0-0.3,0.1-0.3,0.3
			c0,0.6,0.7,1.8,0.7,2.1c0,0,0,0.1-0.1,0.1c-0.2,0-1.3-1.3-1.7-1.3c-0.1,0-0.2,0.2-0.2,0.5v0.4c0,0.3,0,0.5-0.2,0.5
			c-0.3,0-0.5-0.9-0.8-0.9c-0.3,0-0.4,1.6-0.7,1.6c-0.4,0-0.1-1.8-0.4-1.8C9,4.1,8.6,5.3,8.3,5.3c-0.1,0-0.1-0.1-0.1-0.2
			c0-0.4,0.2-1,0.2-1.3c0-0.2-0.1-0.3-0.2-0.3c-0.4,0-1.3,0.6-1.6,0.6c-0.1,0-0.1,0-0.1-0.1c0-0.3,1.4-1.3,1.4-1.7
			c0-0.4-1.9-0.1-1.9-0.6c0-0.4,1.4-0.8,1.4-1.2C7.3,0.2,5.7,0,5,0C4.3,0,3.9,0.1,3.9,0.3c0,0.3,1.7,0.4,1.7,0.7
			C5.6,1.3,3.8,2.1,3.8,2.5z M7.7,1.8c0.3,0,0.7-0.1,1-0.1c0.2,0,0.3,0,0.3,0.2C9,2.2,8.4,2.7,8.4,3c0,0.1,0.1,0.1,0.1,0.1
			c0.3,0,0.7-0.6,1.1-0.6c0.7,0,0.2,1.4,0.6,1.4c0.4,0,0.2-1.4,0.8-1.4c0.4,0,0.8,1,1.1,1c0.1,0,0.1-0.1,0.1-0.2
			c0-0.3-0.4-0.8-0.4-1.2c0-0.2,0.2-0.3,0.4-0.3c0.3,0,0.7,0.2,0.9,0.2c0.1,0,0.2,0,0.2-0.1c0-0.3-1.1-0.6-1.1-1
			c0-0.4,0.6-0.4,0.6-0.6c0-0.1-0.4-0.2-0.9-0.2c-0.8,0-0.7,0.7-1.4,0.7c-0.7,0-0.5-0.7-1.3-0.7c-0.5,0-1,0.1-1,0.2
			c0,0.2,0.6,0.1,0.6,0.5c0,0.4-1.3,0.6-1.3,0.8C7.4,1.7,7.5,1.8,7.7,1.8z M11,30.8c1.9,0,2.3-1.3,2.3-2.1c0-1.9-1.2-3.3-2.7-3.3
			C9.8,25.4,9,26,9,26.9c0,0.8,0.6,2.1,2.2,2.1c0.7,0,1.1-0.5,1.1-1.1c0-0.6-0.5-1.4-1.3-1.4c-0.2,0-0.4,0.2-0.4,0.4
			c0,0.3,0.4,0.6,0.9,0.6c0.1,0,0.2,0,0.3-0.1c0,0,0,0.1,0,0.2c0,0.3-0.3,0.5-0.7,0.5c-0.7,0-1.3-0.5-1.3-1.2c0-0.5,0.4-0.8,1-0.8
			c1.1,0,1.8,1,1.8,2c0,0.9-0.5,1.4-1.5,1.4c-2,0-3-1.8-2.6-3.7c-0.4,0.1-1.1,0.8-1.1,1.8C7.5,28.9,8.8,30.8,11,30.8z M6.8,24
			c0.1,0.4,0.5,0.8,0.9,0.7c0.2,0,0.3-0.1,0.4-0.1C8.3,25,8.6,25.3,9,25.2c0.5,0,0.8-0.4,0.8-0.9c0-0.1,0-0.2-0.1-0.3l0.1,0
			c0.4-0.1,0.8-0.5,0.8-0.9c-0.1-0.5-0.5-0.8-0.9-0.7c-0.2,0-0.3,0.1-0.4,0.2c-0.1-0.4-0.4-0.7-0.9-0.6c-0.4,0-0.8,0.5-0.7,0.9
			c0,0.1,0,0.2,0.1,0.3l-0.1,0C7.1,23.2,6.8,23.5,6.8,24z M8.7,23.1c0.3,0,0.5,0.2,0.5,0.4c0,0.3-0.2,0.5-0.4,0.5
			c-0.3,0-0.5-0.2-0.5-0.4C8.2,23.4,8.4,23.1,8.7,23.1z M32.9,1.8c-0.6,0-1.8,0.3-1.8,0.5c0,0.2,2.2,0.4,2.2,1.3
			c0,0.6-0.5,0.6-0.7,0.6c-0.7,0-1.1-0.7-1.3-0.7c-0.1,0-0.1,0-0.1,0.1c0,0.1,0.1,0.4,0.1,0.7c0,0.8-0.9,0.9-0.9,1.1
			c0,0.1,0,0.1,0.1,0.1c0.7,0.1,1.3,0.2,2,0.2c2.3,0,4.2-0.7,4.2-2.7c0-1.1-0.3-1.5-0.3-2c0-0.2,0.1-0.5,0.5-0.7
			c-0.6,0-0.7-0.2-1.2-0.2c-0.5,0-0.9,0.4-0.9,0.9c0,0.2,0.1,0.5,0.1,0.8c0,0.4-0.1,0.9-0.5,0.9c-0.4,0-0.5-0.2-0.5-0.5
			c0-0.5,0.3-0.8,0.3-1.2c0-0.6-0.7-0.8-1.5-0.8c-0.9,0-2,0.3-2,0.4C30.6,0.7,31.9,0.6,32.9,1.8z M35.6,0.5c0.2,0,0.3,0.1,0.3,0.3
			c0,0.2-0.1,0.3-0.3,0.3c-0.2,0-0.3-0.1-0.3-0.3C35.3,0.6,35.4,0.5,35.6,0.5z M35.4,2.3c0.3,0.1,0.5,0.4,0.5,0.8
			c0,0.7-0.6,1.4-2.4,1.4c-0.2,0-0.3,0-0.5,0C34.5,4.3,35.4,3.5,35.4,2.3z M40.7,40.7c-2.3,0-2.7,3.4-3.1,3.4
			c-0.6,0-0.4-2.7-0.8-2.7c-0.4,0-0.6,0.5-0.6,0.7c-0.3,1.2-1.2,3-2.6,3c-0.3,0-0.9-0.1-0.9-0.4c0-0.3,2.1-0.4,2.1-2
			c0-0.6-0.6-1.4-1.4-1.4c-1.1,0-2.1,1.2-2.1,2.8c0,1.5,0.9,1.9,1.8,1.9c1.6,0,2.6-1.3,3.1-2.4c0.2,0.7,0.4,2.4,1,2.4
			c0.2,0,0.4-0.1,0.7-0.8c0.7-1.6,1.4-3.4,2.4-3.4c0.4,0,0.1,0.6,1,0.6c0.4,0,0.7-0.3,0.7-0.7C42,41.1,41.5,40.7,40.7,40.7z
			 M33.2,42.1c0.5,0,0.7,0.6,0.5,1c-0.1,0.4-0.6,0.8-1.2,0.9C32.3,43.6,32.2,42.1,33.2,42.1z M14.6,38.5c0,0.4,0.3,0.7,0.7,0.7
			c0.5,0,0.9-0.6,0.9-1.1c0-0.4-0.3-0.6-0.7-0.6C15,37.4,14.6,37.9,14.6,38.5z M5.8,37.9c-0.4,0.1-0.8,0.5-0.7,1.5
			c0.1,0.4,0.3,0.8,0.3,1c0.1,0.4,0.3,1,0.1,2.2c-0.2,1.6-0.8,2.6-2.1,2.6c-0.9,0-1.7-0.7-1.8-2.4c-0.1-1.6,0-2.3,0.3-3.7
			C2,38.5,2.1,37.9,1.5,38c-0.7,0.1-0.9,0.4-1.1,1.1C0,40.6,0,41.5,0,42.5C0.1,44.6,1,46,3.2,46c2.5,0,3.4-2.3,3.5-4.3
			c0.1-1.4,0-2.4-0.2-3.2C6.4,38,6.2,37.8,5.8,37.9z M30.5,40.8c-0.6,0-1,0.6-1,1.4c0,0.7,0.2,0.7,0.2,1.2c0,0.6-0.3,1.5-0.7,1.5
			c-1,0-1.2-3.8-1.8-3.8c-0.3,0-0.5,0.4-0.6,0.7C26,43.3,25.3,45,23.9,45c-0.3,0-0.6-0.1-0.7-0.3c1-0.6,1.6-1.2,1.6-2
			c0-0.6-0.4-1.6-1.2-1.6c-0.9,0-2,1.4-2,3.1c0,0.3,0,0.5,0.1,0.7c-0.1,0.1-0.4,0.2-0.6,0.2c-0.7,0-1.3-0.7-1.4-1.1
			c0.5-1,1.5-2.2,1.3-5.1c-0.1-1.1-0.6-1.8-1.4-1.7c-1,0.1-1.9,2.2-1.7,4.5c0,0.5,0.2,1.7,0.5,2.3c-0.5,0.8-1.1,0.9-1.5,0.9
			c-0.5,0-1.3-0.3-1.3-1.5c0.4-1,0.1-2.1-0.4-2.1c-0.7,0-1,1.3-1,2.1c-0.2,0.5-0.5,1-0.9,1c-1.1,0-1.2-3.3-2-3.3
			c-0.7,0-1.8,2.1-2.1,2.1c-0.2,0-0.4-0.6-0.5-1.2c0-0.2-0.1-0.4-0.2-0.4c-0.2,0-0.5,0.2-0.6,0.4c-0.1,0.3-0.3,1.1-0.5,1.8
			c-0.1,0.4-0.4,1.3-0.4,1.6c0,0.2,0.1,0.4,0.3,0.4c0.6,0.1,2.8-2.6,3.5-2.6c0.9,0,1.1,2.6,2.1,2.6c0.6,0,1.2-1.5,1.5-1.5
			c0.4,0,0.6,1.5,1.8,1.5c1.4,0,1.9-0.9,2.4-0.9c0.4,0,0.7,0.9,1.6,0.9c0.6,0,1-0.2,1.6-0.6c0.3,0.4,0.7,0.6,1.1,0.6
			c2.4,0,3.1-2.1,3.5-2.1c0.4,0,0.3,2.1,1.6,2.1c1.6,0,2.7-2.8,2.7-4.4C30.9,41.1,30.8,40.8,30.5,40.8z M19.3,42.8
			c-0.1,0-0.3-0.1-0.4-1.2c-0.1-1.6,0.1-3.1,0.6-3.1c0.4,0,0.5,0.3,0.6,0.9C20.2,41,19.6,42.8,19.3,42.8z M22.8,44.2
			c-0.1-0.1-0.3-0.4-0.3-1c0-0.8,0.5-1,0.7-1c0.3,0,0.5,0.3,0.5,0.7C23.7,43.4,23.5,44,22.8,44.2z"/>
	</g>
</g>
</svg>
