<?xml version="1.0" encoding="utf-8"?>
<!-- Generator: Adobe Illustrator 18.1.1, SVG Export Plug-In . SVG Version: 6.00 Build 0)  -->
<svg version="1.1" id="Layer_1" xmlns="http://www.w3.org/2000/svg" xmlns:xlink="http://www.w3.org/1999/xlink" x="0px" y="0px"
	 viewBox="0 0 612.1 612.1" enable-background="new 0 0 612.1 612.1" xml:space="preserve">
<g>
	<g>
		<path fill="none" d="M591.3,0H373.5c-5.5,0-10.4,2.2-14.4,6.3L5.8,359.2c-7.8,7.8-7.8,21.1,0,28.8l218.2,218.2
			c7.8,7.8,21.1,7.8,28.8,0L605.8,253c4.1-4.1,6.3-8.9,6.3-14.4V20.7C612.1,9.2,602.8,0,591.3,0z M571,230.4L238.5,562.2L49.1,373.6
			L381.6,41.1H571V230.4z M473.3,206.8c18.9,0,34.8-6.7,48.5-20.3c13.3-13.3,20-29.2,20-48.1c0-18.9-6.7-34.8-20-48.1
			c-12.9-12.9-29.2-19.6-48.5-19.6c-19.2,0-35.5,6.7-48.4,19.6c-12.9,12.9-19.6,29.2-19.6,48.5c0,18.9,6.7,34.8,19.6,47.7
			C438.6,200.1,454.5,206.8,473.3,206.8z M454.5,119.1c4.6-5,10.7-7.8,18.9-7.8c7.8,0,14.4,2.6,19.6,7.8c10.7,10.7,10.7,27.7,0,38.5
			c-5.5,5.5-12.2,8.5-19.6,8.5c-7.8,0-13.8-3.1-18.9-8.5c-5.4-5.7-8.5-11.8-8.5-18.9C446,131.3,449.1,124.8,454.5,119.1z"/>
	</g>
	<g>
		<g>
			<path fill="#555554" d="M591.3,0H373.5c-5.5,0-10.4,2.2-14.4,6.3L5.8,359.2c-7.8,7.8-7.8,21.1,0,28.8l218.2,218.2
				c7.8,7.8,21.1,7.8,28.8,0L605.8,253c4.1-4.1,6.3-8.9,6.3-14.4V20.7C612.1,9.2,602.8,0,591.3,0z M571,230.4L238.5,562.2
				L49.1,373.6L381.6,41.1H571V230.4z M473.3,206.8c18.9,0,34.8-6.7,48.5-20.3c13.3-13.3,20-29.2,20-48.1c0-18.9-6.7-34.8-20-48.1
				c-12.9-12.9-29.2-19.6-48.5-19.6c-19.2,0-35.5,6.7-48.4,19.6c-12.9,12.9-19.6,29.2-19.6,48.5c0,18.9,6.7,34.8,19.6,47.7
				C438.6,200.1,454.5,206.8,473.3,206.8z M454.5,119.1c4.6-5,10.7-7.8,18.9-7.8c7.8,0,14.4,2.6,19.6,7.8
				c10.7,10.7,10.7,27.7,0,38.5c-5.5,5.5-12.2,8.5-19.6,8.5c-7.8,0-13.8-3.1-18.9-8.5c-5.4-5.7-8.5-11.8-8.5-18.9
				C446,131.3,449.1,124.8,454.5,119.1z"/>
		</g>
	</g>
	
		<text transform="matrix(0.7071 0.7071 -0.7071 0.7071 137.6233 348.0375)" fill="#555655" font-family="'OpenSans-Bold'" font-size="318">$</text>
</g>
</svg>
