<?xml version="1.0" encoding="utf-8"?>
<!-- Generator: Adobe Illustrator 18.1.1, SVG Export Plug-In . SVG Version: 6.00 Build 0)  -->
<svg version="1.1" xmlns="http://www.w3.org/2000/svg" xmlns:xlink="http://www.w3.org/1999/xlink" x="0px" y="0px"
	 viewBox="0 0 404.9 511" enable-background="new 0 0 404.9 511" xml:space="preserve">
<g id="Layer_1">
</g>
<g id="Layer_2">
	<g>
		<path fill-rule="evenodd" clip-rule="evenodd" fill="#555655" d="M56,5c0,0,15.6-5.2,32-5c16.6,0.3,34,6,34,6s1.9-0.1,2,4
			c0.5,20.3,0,83,0,83s25.4,7.7,38,13c12.4,5.2,12,8,12,8l2,381c0,0-0.7,3.9-3,7c-2.2,2.9-6,5-6,5s-43.2,4.3-84,4
			c-38.1-0.2-74-5-74-5s-3.9-0.6-6-3c-2.4-2.6-3-7-3-7V116c0,0-0.6-4,13-10c13.4-6,41-14,41-14s0.6-64.5,1-82C55.1,7.3,56,5,56,5z"
			/>
		<path fill-rule="evenodd" clip-rule="evenodd" fill="#555655" d="M404.9,38c0,0-15.3,58-20.5,125c-8.2,105.5-16.4,238.8-16,240
			c0.8,2.4-1,5-1,5l-2,45c0,0-4.4,10.4-16,15c-13.3,5.3-34,5-34,5s-20.9,0.5-34-5c-11.8-5-16-16-16-16l1-41c0,0,0.2,0.1-2-2
			c-1.7-1.7-2-4-2-4s-5.3-137.5-13.2-244.8C244.3,92.3,230.5,38,230.5,38H404.9z"/>
	</g>
</g>
</svg>
