<?xml version="1.0" encoding="utf-8"?>
<!-- Generator: Adobe Illustrator 17.0.0, SVG Export Plug-In . SVG Version: 6.00 Build 0)  -->
<!DOCTYPE svg PUBLIC "-//W3C//DTD SVG 1.1//EN" "http://www.w3.org/Graphics/SVG/1.1/DTD/svg11.dtd">
<svg version="1.1" id="Layer_1" xmlns="http://www.w3.org/2000/svg" xmlns:xlink="http://www.w3.org/1999/xlink" x="0px" y="0px"
	 width="11.601px" height="32.458px" viewBox="0 0 11.601 32.458" enable-background="new 0 0 11.601 32.458" xml:space="preserve">
<g>
	<path fill="none" stroke="#4CAEF8" stroke-miterlimit="10" d="M5.8,0.5c0,0-1.443,0.017-1.719,0.138c0,0-0.241,0.069-0.241,0.207
		s0,5.045,0,5.045s0.19,0.017,0.121,0.12C3.892,6.113,3.772,5.975,3.685,6.337L0.844,7.904c0,0-0.344,0.224-0.344,0.517
		c0,0.293,0.034,22.866,0.034,22.866s0.121,0.672,0.826,0.672s4.44,0,4.44,0"/>
	<path fill="none" stroke="#4CAEF8" stroke-miterlimit="10" d="M5.8,0.5c0,0,1.443,0.017,1.719,0.138c0,0,0.241,0.069,0.241,0.207
		s0,5.045,0,5.045S7.571,5.907,7.64,6.01s0.189-0.034,0.275,0.327l2.841,1.567c0,0,0.344,0.224,0.344,0.517
		s-0.034,22.866-0.034,22.866s-0.121,0.672-0.826,0.672s-4.44,0-4.44,0"/>
</g>
</svg>
