<?xml version="1.0" encoding="utf-8"?>
<!-- Generator: Adobe Illustrator 18.1.1, SVG Export Plug-In . SVG Version: 6.00 Build 0)  -->
<svg version="1.1" id="Layer_1" xmlns="http://www.w3.org/2000/svg" xmlns:xlink="http://www.w3.org/1999/xlink" x="0px" y="0px"
	 viewBox="0 0 29 21" enable-background="new 0 0 29 21" xml:space="preserve">
<g>
	<g>
		<path fill="#555655" d="M3.7,10.1c0.2,0,0.5-0.1,0.7-0.3c0.4-0.4,0.4-1,0-1.4L1.7,5.6c-0.4-0.4-1-0.4-1.4,0c-0.4,0.4-0.4,1,0,1.4
			L3,9.8C3.2,10,3.4,10.1,3.7,10.1z M6.8,6.7c0.2,0.4,0.5,0.6,0.9,0.6c0.1,0,0.3,0,0.4-0.1C8.6,7,8.8,6.3,8.6,5.9L6.9,2.3
			C6.6,1.8,6,1.6,5.5,1.9C5,2.1,4.8,2.7,5.1,3.2L6.8,6.7z M12.2,5.9c0,0,0.1,0,0.2,0c0.5-0.1,0.9-0.6,0.8-1.1l-0.6-3.9
			C12.5,0.3,12-0.1,11.4,0c-0.5,0.1-0.9,0.6-0.8,1.1L11.2,5C11.2,5.5,11.7,5.9,12.2,5.9z M16.7,5.9c0.1,0,0.1,0,0.2,0
			c0.5,0,0.9-0.4,1-0.9l0.6-3.9c0.1-0.5-0.3-1.1-0.8-1.1c-0.5-0.1-1,0.3-1.1,0.8l-0.6,3.9C15.8,5.3,16.1,5.8,16.7,5.9z M20.9,7.2
			c0.1,0.1,0.3,0.1,0.4,0.1c0.4,0,0.7-0.2,0.9-0.6l1.7-3.5c0.2-0.5,0-1.1-0.5-1.3c-0.5-0.2-1.1,0-1.3,0.5l-1.7,3.5
			C20.2,6.3,20.4,7,20.9,7.2z M28.7,5.6c-0.4-0.4-1-0.4-1.4,0l-2.7,2.8c-0.4,0.4-0.4,1,0,1.4c0.2,0.2,0.4,0.3,0.7,0.3
			c0.3,0,0.5-0.1,0.7-0.3L28.7,7C29.1,6.6,29.1,5.9,28.7,5.6z M26,13.1c0-0.1-1.2-1.5-3.2-3c-2.6-2-5.5-3-8.4-3c-2.8,0-5.7,1-8.4,3
			c-1.9,1.4-3,2.8-3.2,3l-0.6,0.7c-0.1,0.1-0.1,0.3,0,0.4L2.9,15c0,0.1,1.2,1.5,3.2,3c2.6,2,5.5,3,8.4,3c2.8,0,5.7-1,8.4-3
			c2-1.5,3.1-2.9,3.2-3l0.6-0.7c0.1-0.1,0.1-0.3,0-0.4L26,13.1z M24.9,14.1c0,0.1-1.1,1.4-2.9,2.7c-2.4,1.8-5,2.7-7.5,2.7
			c-2.5,0-5.1-0.9-7.5-2.7c-1.8-1.3-2.9-2.7-2.9-2.7l0,0l0,0c0,0,1.1-1.4,2.9-2.7c1.6-1.2,3.2-2,4.9-2.4c0.4,0.3,0.7,0.8,0.7,1.3
			c0,0.9-0.7,1.6-1.6,1.6c-0.5,0-0.9-0.2-1.1-0.5c-0.1,0.4-0.1,0.7-0.1,1.1c0,2.6,2.1,4.8,4.7,4.8c2.6,0,4.7-2.1,4.7-4.8
			c0-1.3-0.5-2.4-1.3-3.3c1.4,0.5,2.7,1.2,4.1,2.1C23.8,12.6,24.8,13.9,24.9,14.1L24.9,14.1L24.9,14.1z"/>
	</g>
</g>
</svg>
