<?xml version="1.0" encoding="utf-8"?>
<!-- Generator: Adobe Illustrator 18.1.1, SVG Export Plug-In . SVG Version: 6.00 Build 0)  -->
<svg version="1.1" id="Layer_1" xmlns="http://www.w3.org/2000/svg" xmlns:xlink="http://www.w3.org/1999/xlink" x="0px" y="0px"
	 viewBox="0 0 33 27" enable-background="new 0 0 33 27" xml:space="preserve">
<path fill="#555655" d="M2.8,26.5c-1.3-0.8-1.9-6.9-1.9-6.9s-1.1-6.5-0.9-7.8c0.2-1.3,2.4-3.2,3.2-3.1C1.7,6.6,4.8,5.8,4.8,5.8
	s2.9-2.5,9.7-3.9c0.6,0-0.9-0.6-2.3-0.8c0.5-0.9,3.4,0.6,3.4,0.6s-1.2-1.2-2.6-1.6c0.4-0.4,2.2,0.7,4.2,1.5c3.7,1.3,7,1.2,8.1,2.7
	C26,4.8,25.5,5.9,26.3,6c0.8,0.1,5.3,1.3,6.7,5.5c-1.7-1.8-2.9-1.8-2.9-1.8s2.6,2.8,2.6,4.9c0,0.8-0.8,1.4-1.5,2.5
	c-1,1.8-2.1,4.2-2.3,5.2c-0.3,1.7-0.7,4.4-1.4,4.5c-0.7,0.1-0.6-10.8-0.5-11.5c0.3-1-4.5-2.2-4.5-2.2s3.5,2.1,2.7,4.2
	c-0.9-2.4-2.2-2.4-2.2-2.4s2.7,5,1.1,6c-0.9-5.6-3.3-6.8-5.2-7.6c-1.9-0.8-6.1-0.5-8.5,0.4C7.8,14.7,5.3,14,5.3,14l0.4,2.1l-1.2-0.9
	l-0.2,1.4c0,0,0.7,1.3,0.6,2c-0.7-0.9-1.1-0.9-1.1-0.9s0.6,1,0.4,1.6c-0.4-0.7-1-0.5-1-0.5S3.6,26.4,2.8,26.5z"/>
</svg>
